<mxfile host="app.diagrams.net" modified="2023-05-16T18:36:03.897Z" agent="Mozilla/5.0 (Windows NT 10.0; Win64; x64) AppleWebKit/537.36 (KHTML, like Gecko) Chrome/113.0.0.0 Safari/537.36" etag="imv_uQSl4HiIYQIrv26Q" version="21.3.2" type="github">
  <diagram name="Страница 1" id="FBSHWOaE0vjw9c7HnnYT">
    <mxGraphModel dx="1050" dy="549" grid="1" gridSize="10" guides="1" tooltips="1" connect="1" arrows="1" fold="1" page="1" pageScale="1" pageWidth="827" pageHeight="1169" math="0" shadow="0">
      <root>
        <mxCell id="0" />
        <mxCell id="1" parent="0" />
        <mxCell id="qQDTDnZwMtmpaiowyL-f-4" value="" style="edgeStyle=orthogonalEdgeStyle;rounded=0;orthogonalLoop=1;jettySize=auto;html=1;" edge="1" parent="1" source="qQDTDnZwMtmpaiowyL-f-1" target="qQDTDnZwMtmpaiowyL-f-3">
          <mxGeometry relative="1" as="geometry" />
        </mxCell>
        <mxCell id="qQDTDnZwMtmpaiowyL-f-1" value="start" style="rounded=1;whiteSpace=wrap;html=1;" vertex="1" parent="1">
          <mxGeometry x="140" y="30" width="120" height="60" as="geometry" />
        </mxCell>
        <mxCell id="qQDTDnZwMtmpaiowyL-f-9" value="" style="edgeStyle=orthogonalEdgeStyle;rounded=0;orthogonalLoop=1;jettySize=auto;html=1;" edge="1" parent="1" source="qQDTDnZwMtmpaiowyL-f-3" target="qQDTDnZwMtmpaiowyL-f-8">
          <mxGeometry relative="1" as="geometry" />
        </mxCell>
        <mxCell id="qQDTDnZwMtmpaiowyL-f-3" value="n" style="shape=parallelogram;perimeter=parallelogramPerimeter;whiteSpace=wrap;html=1;fixedSize=1;" vertex="1" parent="1">
          <mxGeometry x="140" y="130" width="120" height="60" as="geometry" />
        </mxCell>
        <mxCell id="qQDTDnZwMtmpaiowyL-f-13" value="" style="edgeStyle=orthogonalEdgeStyle;rounded=0;orthogonalLoop=1;jettySize=auto;html=1;" edge="1" parent="1" source="qQDTDnZwMtmpaiowyL-f-8" target="qQDTDnZwMtmpaiowyL-f-12">
          <mxGeometry relative="1" as="geometry" />
        </mxCell>
        <mxCell id="qQDTDnZwMtmpaiowyL-f-8" value="x1 = 1&lt;br&gt;x2 = 1" style="rounded=0;whiteSpace=wrap;html=1;" vertex="1" parent="1">
          <mxGeometry x="140" y="230" width="120" height="60" as="geometry" />
        </mxCell>
        <mxCell id="qQDTDnZwMtmpaiowyL-f-15" value="" style="edgeStyle=orthogonalEdgeStyle;rounded=0;orthogonalLoop=1;jettySize=auto;html=1;" edge="1" parent="1" source="qQDTDnZwMtmpaiowyL-f-12" target="qQDTDnZwMtmpaiowyL-f-14">
          <mxGeometry relative="1" as="geometry" />
        </mxCell>
        <mxCell id="qQDTDnZwMtmpaiowyL-f-19" value="" style="edgeStyle=orthogonalEdgeStyle;rounded=0;orthogonalLoop=1;jettySize=auto;html=1;" edge="1" parent="1" source="qQDTDnZwMtmpaiowyL-f-12" target="qQDTDnZwMtmpaiowyL-f-18">
          <mxGeometry relative="1" as="geometry" />
        </mxCell>
        <mxCell id="qQDTDnZwMtmpaiowyL-f-12" value="&amp;nbsp;x1 &amp;lt; n" style="rhombus;whiteSpace=wrap;html=1;rounded=0;" vertex="1" parent="1">
          <mxGeometry x="160" y="320" width="80" height="80" as="geometry" />
        </mxCell>
        <mxCell id="qQDTDnZwMtmpaiowyL-f-16" style="edgeStyle=orthogonalEdgeStyle;rounded=0;orthogonalLoop=1;jettySize=auto;html=1;exitX=0.5;exitY=0;exitDx=0;exitDy=0;entryX=0.5;entryY=0;entryDx=0;entryDy=0;" edge="1" parent="1" source="qQDTDnZwMtmpaiowyL-f-14" target="qQDTDnZwMtmpaiowyL-f-12">
          <mxGeometry relative="1" as="geometry">
            <Array as="points">
              <mxPoint x="370" y="310" />
              <mxPoint x="200" y="310" />
            </Array>
          </mxGeometry>
        </mxCell>
        <mxCell id="qQDTDnZwMtmpaiowyL-f-14" value="x1++&lt;br&gt;x2 *= x1" style="whiteSpace=wrap;html=1;rounded=0;" vertex="1" parent="1">
          <mxGeometry x="310" y="330" width="120" height="60" as="geometry" />
        </mxCell>
        <mxCell id="qQDTDnZwMtmpaiowyL-f-17" value="true" style="text;html=1;align=center;verticalAlign=middle;resizable=0;points=[];autosize=1;strokeColor=none;fillColor=none;" vertex="1" parent="1">
          <mxGeometry x="240" y="330" width="40" height="30" as="geometry" />
        </mxCell>
        <mxCell id="qQDTDnZwMtmpaiowyL-f-22" value="" style="edgeStyle=orthogonalEdgeStyle;rounded=0;orthogonalLoop=1;jettySize=auto;html=1;" edge="1" parent="1" source="qQDTDnZwMtmpaiowyL-f-18" target="qQDTDnZwMtmpaiowyL-f-21">
          <mxGeometry relative="1" as="geometry" />
        </mxCell>
        <mxCell id="qQDTDnZwMtmpaiowyL-f-18" value="x2" style="shape=document;whiteSpace=wrap;html=1;boundedLbl=1;rounded=0;" vertex="1" parent="1">
          <mxGeometry x="140" y="440" width="120" height="80" as="geometry" />
        </mxCell>
        <mxCell id="qQDTDnZwMtmpaiowyL-f-20" value="false" style="text;html=1;align=center;verticalAlign=middle;resizable=0;points=[];autosize=1;strokeColor=none;fillColor=none;" vertex="1" parent="1">
          <mxGeometry x="200" y="398" width="50" height="30" as="geometry" />
        </mxCell>
        <mxCell id="qQDTDnZwMtmpaiowyL-f-21" value="finish" style="rounded=1;whiteSpace=wrap;html=1;" vertex="1" parent="1">
          <mxGeometry x="140" y="570" width="120" height="60" as="geometry" />
        </mxCell>
      </root>
    </mxGraphModel>
  </diagram>
</mxfile>
